# xmcd
#
# Track frame offsets: 
#        150
#        19646
#        38132
#        63106
#        85790
#        111447
#        141186
#        163866
#        186444
#        209422
#        233914
#        263484
#
# Disc length: 3809 seconds
#
# Revision: 0
# Processed by: cddbd v1.5.2PL0 Copyright (c) Steve Scherf et al.
# Submitted via: ExactAudioCopy v0.90b4
#
DISCID=a20edf0c
DTITLE=Gary P. Nunn - Texas Music Legends
DYEAR=2007
DGENRE=Progressive Rock
TTITLE0=Austin Pickers
TTITLE1=Roadtrip
TTITLE2=Redneck Riviera
TTITLE3=Think I'll Go To Mexico
TTITLE4=Cowboy At Heart
TTITLE5=Adios Amigo
TTITLE6=The Last Thing I Needed
TTITLE7=Perfectly Normal
TTITLE8=Gimme Some Money
TTITLE9=London Homesick Blues
TTITLE10=Friends For Life
TTITLE11=What I Like About Texas
EXTD=
EXTT0=
EXTT1=
EXTT2=
EXTT3=
EXTT4=
EXTT5=
EXTT6=
EXTT7=
EXTT8=
EXTT9=
EXTT10=
EXTT11=
PLAYORDER=
